# xmcd
#
# Track frame offsets:
#	150
#	16875
#	29975
#	45955
#	64880
#	84585
#	102442
#	123060
#	141045
#	158530
#	172497
#	187800
#	205507
#	226322
#
# Disc length: 3194 seconds
#
# Revision: 1
# Processed by: cddbd v1.5.1PL0 Copyright (c) Steve Scherf et al.
# Submitted via: EasyCDDAExtractor 7.1.1.1
#
DISCID=b20c780e
DTITLE=Pager Group, WAPS! - Lovely Ballad Sound
DYEAR=2000
DGENRE=Ballad
TTITLE0=When A Man
TTITLE1=It's So Hard To Say Goodbye
TTITLE2=Now And Forever
TTITLE3=How Am I Supposed
TTITLE4=Tears In Heaven
TTITLE5=Just When I Needed You Most
TTITLE6=Only Love
TTITLE7=Have I Told You Lately
TTITLE8=Horiesty
TTITLE9=Imagine
TTITLE10=Let It Be Me
TTITLE11=Can You Feel The Love Tonight
TTITLE12=Love Of My Life
TTITLE13=Without You
EXTD=
EXTT0=
EXTT1=
EXTT2=
EXTT3=
EXTT4=
EXTT5=
EXTT6=
EXTT7=
EXTT8=
EXTT9=
EXTT10=
EXTT11=
EXTT12=
EXTT13=
PLAYORDER=
